<svg xmlns="http://www.w3.org/2000/svg" viewBox="0 0 1024 1024">
  <defs>
    <linearGradient id="bg" x1="0" y1="0" x2="1" y2="1">
      <stop offset="0%" stop-color="#A4E0DC"/>
      <stop offset="55%" stop-color="#58BEBC"/>
      <stop offset="100%" stop-color="#269DA3"/>
    </linearGradient>
    <filter id="softShadow" x="-20%" y="-20%" width="140%" height="140%">
      <feDropShadow dx="10" dy="12" stdDeviation="8" flood-color="#00555A" flood-opacity=".32"/>
    </filter>
  </defs>
  <rect width="1024" height="1024" fill="url(#bg)"/>
  <g fill="none" stroke="#fff" stroke-width="36" stroke-linecap="round" filter="url(#softShadow)">
    <path d="M258 647 A292 292 0 0 1 668 264"/>
    <path d="M761 376 A292 292 0 0 1 349 760"/>
  </g>
  <g fill="#fff" filter="url(#softShadow)">
    <circle cx="714" cy="345" r="40"/>
    <circle cx="310" cy="676" r="40"/>
  </g>
  <path d="M512 438 L538 486 L586 512 L538 538 L512 586 L486 538 L438 512 L486 486 Z" fill="#FFCA52" filter="url(#softShadow)"/>
  <path d="M512 472 L525 499 L552 512 L525 525 L512 552 L499 525 L472 512 L499 499 Z" fill="#FFE48F" opacity=".9"/>
</svg>
